Coordinates
version=1
nRows=12
nColumns=24
inDegrees=yes

Units are S.I. units (second, meters, Newtons, ...)
Angles are in degrees.

endheader
time	pelvis_tilt	pelvis_list	pelvis_rotation	pelvis_tx	pelvis_ty	pelvis_tz	hip_flexion_r	hip_adduction_r	hip_rotation_r	knee_angle_r	ankle_angle_r	subtalar_angle_r	mtp_angle_r	hip_flexion_l	hip_adduction_l	hip_rotation_l	knee_angle_l	ankle_angle_l	subtalar_angle_l	mtp_angle_l	lumbar_extension	lumbar_bending	lumbar_rotation
      3.38500000	    -11.14253302	      4.87556885	     -3.27621102	     -2.10521020	     -0.01573116	     -0.68251907	     19.56820790	     -6.94768439	     -2.78084321	    -63.34249356	    -26.42976389	    -18.90106413	     -1.17413065	     26.07617541	      6.29598115	    -13.50662778	    -21.01883041	      1.83425937	    -10.15098512	      2.43186351	      7.11744114	     -5.76599694	      1.48559885
      3.39000000	    -11.22086958	      4.77319446	     -3.13452240	     -2.09992106	     -0.01500301	     -0.68324783	     20.49163222	     -6.82376962	     -2.83885931	    -64.20236081	    -25.52585642	    -19.04079649	     -1.26635263	     25.63445789	      6.34956383	    -13.33449571	    -20.71383113	      1.99460911	    -10.06734802	      2.66970151	      7.13281061	     -5.66991974	      1.17184348
      3.39500000	    -11.27789872	      4.66149127	     -3.05491153	     -2.09464925	     -0.01423020	     -0.68394683	     21.39024477	     -6.66791584	     -2.83052791	    -64.97038723	    -24.50548393	    -19.05989507	     -1.12946835	     25.15148073	      6.37830132	    -13.17205747	    -20.37818197	      2.18392280	    -10.01203371	      2.80895221	      7.13374763	     -5.54373093	      0.97647839
      3.40000000	    -11.33285438	      4.54434161	     -2.96159720	     -2.08935677	     -0.01344308	     -0.68468478	     22.26337272	     -6.51618102	     -2.84450045	    -65.64306373	    -23.41273772	    -19.02454710	     -0.84447675	     24.65390441	      6.41029004	    -12.99143862	    -20.02355360	      2.39208136	     -9.93780404	      2.89452592	      7.13788199	     -5.40874452	      0.75355284
      3.40500000	    -11.38992490	      4.41313592	     -2.87553687	     -2.08410789	     -0.01263913	     -0.68539986	     23.12316180	     -6.33941794	     -2.84704302	    -66.22637926	    -22.23702513	    -18.90887265	     -0.43924928	     24.16164909	      6.42080444	    -12.82195674	    -19.66884968	      2.56334449	     -9.87584693	      2.93213248	      7.14354464	     -5.25970458	      0.52949538
      3.41000000	    -11.43812651	      4.28362683	     -2.77943371	     -2.07885895	     -0.01181653	     -0.68613401	     23.95175322	     -6.16591352	     -2.85526481	    -66.71793240	    -21.03922467	    -18.77599985	      0.06008465	     23.65078069	      6.43809270	    -12.65286363	    -19.29452458	      2.72397718	     -9.81374739	      2.93340068	      7.13858001	     -5.11068152	      0.31675789
      3.41500000	    -11.49017971	      4.19451555	     -2.73786395	     -2.07360777	     -0.01100904	     -0.68686604	     24.79004545	     -6.02024023	     -2.78978140	    -67.12287465	    -19.93636625	    -18.65525182	      1.07488774	     23.12079865	      6.49510832	    -12.46437303	    -18.86895222	      2.83616127	     -9.87711108	      2.75419602	      7.15231351	     -4.98070135	      0.17839269
      3.42000000	    -11.48253012	      4.03508475	     -2.59364584	     -2.06829368	     -0.01012115	     -0.68764765	     25.49296897	     -5.85241879	     -2.90115936	    -67.42035753	    -18.79567866	    -18.57681088	      1.54098835	     22.53298842	      6.49334315	    -12.29209963	    -18.47984032	      3.04377243	     -9.70036469	      2.75779174	      7.09988911	     -4.80608296	     -0.10117574
      3.42500000	    -11.45134704	      3.93173336	     -2.53622677	     -2.06300484	     -0.00923518	     -0.68839285	     26.19009554	     -5.70612953	     -2.88187870	    -67.65330118	    -17.73651632	    -18.46634482	      2.30570310	     21.88787864	      6.54045009	    -12.12021901	    -18.01451629	      3.18766681	     -9.68653450	      2.61802361	      7.03215633	     -4.66615034	     -0.25547708
      3.43000000	    -11.43127206	      3.80264137	     -2.38720860	     -2.05765634	     -0.00837292	     -0.68918635	     26.85028955	     -5.58208141	     -3.00836786	    -67.80213244	    -16.71543496	    -18.45771623	      2.65910511	     21.26570371	      6.57006341	    -11.96435494	    -17.58006611	      3.36122071	     -9.51315922	      2.61834634	      6.98137385	     -4.51994908	     -0.53331310
      3.43500000	    -11.37647821	      3.69190063	     -2.27729938	     -2.05229835	     -0.00750211	     -0.68995262	     27.46569707	     -5.46459202	     -3.09210166	    -67.88093342	    -15.74688943	    -18.43898216	      2.97493567	     20.58685763	      6.61152076	    -11.81508715	    -17.10646998	      3.50902287	     -9.39580926	      2.60094064	      6.90125630	     -4.38266472	     -0.75157016
      3.44000000	    -11.29867798	      3.58801137	     -2.15943149	     -2.04690686	     -0.00663201	     -0.69073128	     28.03119115	     -5.36588371	     -3.19764509	    -67.87807795	    -14.85907622	    -18.48581816	      3.20930929	     19.87214023	      6.66247121	    -11.66614460	    -16.61380699	      3.64154993	     -9.27788930	      2.58274863	      6.80443542	     -4.25122834	     -0.97086884
